# xmcd
#
# Track frame offsets: 
#        150
#        23945
#        40472
#        52892
#        66495
#        76705
#        105417
#        116640
#        141770
#        155027
#        162890
#        185112
#        205500
#        218180
#        250500
#        263310
#
# Disc length: 3709 seconds
#
# Revision: 1
# Processed by: cddbd v1.5.1PL0 Copyright (c) Steve Scherf et al.
# Submitted via: ExactAudioCopy v0.95b2
#
DISCID=d50e7b10
DTITLE=Giovanni Mirabassi - Avanti!
DYEAR=2001
DGENRE=Jazz
TTITLE0=El Pueblo Unido Jamas Sera Vencido
TTITLE1=Le Chant Des Partisans
TTITLE2=Ah! Ca Ira
TTITLE3=Le Temps Des Cerises
TTITLE4=Hasta Siempre
TTITLE5=Je Chante Pour Passer Le Temps
TTITLE6=Sciur Padrun
TTITLE7=El Paso Del Ebro
TTITLE8=A Si M'Bonanga
TTITLE9=La Butte Rouge
TTITLE10=Addio Lugano Bella
TTITLE11=Johnny I Hardly Knew Ye
TTITLE12=Bella Ciao
TTITLE13=Imagine
TTITLE14=My Revolution
TTITLE15=Plaine, Ma Plaine
EXTD=piano solo\n YEAR: 2001
EXTT0=
EXTT1=
EXTT2=
EXTT3=
EXTT4=
EXTT5=
EXTT6=
EXTT7=
EXTT8=
EXTT9=
EXTT10=
EXTT11=
EXTT12=
EXTT13=
EXTT14=
EXTT15=
PLAYORDER=
